<?xml version="1.0" encoding="utf-8" ?>
<svg xmlns="http://www.w3.org/2000/svg" xmlns:xlink="http://www.w3.org/1999/xlink" width="17" height="20">
	<defs>
		<clipPath id="clip_0">
			<rect x="-514.9502" y="-431.28467" width="1368" height="950" clip-rule="evenodd"/>
		</clipPath>
	</defs>
	<g clip-path="url(#clip_0)">
		<path fill="rgb(73,143,225)" stroke="none" transform="matrix(0.95 0 0 0.95 -0.0228271 0.019043)" d="M16.89 3.83848L13.0514 0L4.60636 0L4.60636 3.07078L0 3.07078L0 19.96L12.2836 19.96L12.2836 16.8892L16.89 16.8892L16.89 3.83848ZM12.2836 6.90922L12.2836 16.1216L16.1223 16.1216L16.1223 4.60615L12.2836 4.60615L12.2836 0.767704L5.3741 0.767704L5.3741 3.07078L8.44502 3.07078L12.2836 6.90922ZM13.0514 1.08559L15.8044 3.83844L13.0514 3.83844L13.0514 1.08559ZM0.7677 3.83848L0.7677 19.1923L11.5159 19.1923L11.5159 7.67693L7.67724 7.67693L7.67724 3.83848L0.7677 3.83848ZM8.44498 4.15637L11.198 6.90922L8.44498 6.90922L8.44498 4.15637Z" fill-rule="evenodd"/>
	</g>
</svg>
