<?xml version="1.0" encoding="utf-8" ?>
<svg xmlns="http://www.w3.org/2000/svg" xmlns:xlink="http://www.w3.org/1999/xlink" width="80" height="45">
	<defs>
		<clipPath id="clip_0">
			<rect x="-245" y="-25" width="1440" height="1000" clip-rule="evenodd"/>
		</clipPath>
	</defs>
	<g clip-path="url(#clip_0)">
		<path fill="rgb(244,194,49)" stroke="none" transform="translate(47.3041 0.748978)" d="M4.74574 0L0 0L0 35.2021L4.74574 35.2021L4.74574 16.6L10.3478 16.6L10.3478 11.9094L4.74574 11.9094L4.74574 0"/>
	</g>
	<defs>
		<clipPath id="clip_1">
			<rect x="-245" y="-25" width="1440" height="1000" clip-rule="evenodd"/>
		</clipPath>
	</defs>
	<g clip-path="url(#clip_1)">
		<path fill="rgb(244,194,49)" stroke="none" transform="translate(36.2172 12.7327)" d="M4.43475 0L0 4.49388L4.43475 4.49388L4.43475 0"/>
	</g>
	<defs>
		<clipPath id="clip_2">
			<rect x="-245" y="-25" width="1440" height="1000" clip-rule="evenodd"/>
		</clipPath>
	</defs>
	<g clip-path="url(#clip_2)">
		<path fill="rgb(244,194,49)" stroke="none" transform="translate(58.9257 18.8541)" d="M14.2354 0L9.6654 10.6125L9.45313 10.6125L5.27503 0L0 0L7.01165 16.1507L2.51083 25.3357L7.43531 25.3357L19.0861 0L14.2354 0"/>
	</g>
	<defs>
		<clipPath id="clip_3">
			<rect x="-245" y="-25" width="1440" height="1000" clip-rule="evenodd"/>
		</clipPath>
	</defs>
	<g clip-path="url(#clip_3)">
		<path fill="rgb(244,194,49)" stroke="none" d="M28.5518 28.0371C26.041 30.992 22.294 32.8608 18.1666 32.8608C10.4363 32.8608 4.17318 26.3654 4.17318 18.3476C4.17318 10.329 10.4363 3.83362 18.1666 3.83362C22.1496 3.83362 25.7998 5.55878 28.3157 8.3597C28.3619 8.412 28.413 8.412 28.4589 8.46014C29.5479 9.73817 30.4511 11.1645 31.0668 12.7407L34.1983 9.44538C33.3919 7.91742 32.396 6.53872 31.2562 5.30861L30.9739 5.01559C30.8307 4.86632 30.6872 4.72212 30.5429 4.62145C27.0835 1.52313 23.3365 0 18.0231 0C13.4233 0 9.38933 1.52313 6.30864 4.07919C5.07645 5.16417 3.98351 6.39429 3.08025 7.82113C2.79752 8.31156 2.46438 8.80591 2.18187 9.34426C2.18187 9.39171 2.13545 9.44538 2.08415 9.49284C1.04252 11.5592 0.379562 13.8696 0.0928361 16.3301C0.0464181 16.9689 0 17.6607 0 18.3476C0 20.3169 0.282728 22.1858 0.80643 23.9057C0.9961 24.4972 1.18577 25.0879 1.42208 25.6785C1.84806 26.7121 2.37176 27.696 2.94099 28.6285C3.27081 29.1237 3.60395 29.6133 3.98351 30.0553C4.21938 30.3532 4.45613 30.6466 4.7433 30.9445C4.83614 30.992 4.88678 31.0401 4.93275 31.0882C5.16928 31.3336 5.35984 31.5303 5.59526 31.727C5.97549 32.0728 6.35505 32.4193 6.73462 32.7606C6.78103 32.7606 6.82812 32.8134 6.82812 32.8134C7.25832 33.1064 7.6843 33.4517 8.15736 33.7452C8.25442 33.7933 8.39323 33.8938 8.49051 33.9419C8.72637 34.091 8.96335 34.2398 9.19877 34.3842C9.81975 34.7781 10.4823 35.1241 11.1443 35.3694C11.668 35.5662 12.1913 35.7627 12.7099 35.9119C13.2798 36.1087 13.8492 36.2531 14.4194 36.3535C15.5587 36.5989 16.7909 36.7 18.0231 36.7C23.0023 36.7 26.6566 35.3694 29.9274 32.563C30.4047 32.1739 30.8771 31.727 31.3026 31.2375C32.2064 30.3002 33.0126 29.22 33.6746 28.0371L36.0924 28.0371L36.0924 36.0075L40.65 36.0075L40.65 23.315L31.3026 23.315C30.6872 25.0879 29.7882 26.664 28.5518 28.0371"/>
	</g>
</svg>
