<?xml version="1.0" encoding="utf-8" ?>
<svg xmlns="http://www.w3.org/2000/svg" xmlns:xlink="http://www.w3.org/1999/xlink" width="20" height="13">
	<defs>
		<clipPath id="clip_0">
			<rect x="-257.47083" y="-141.41573" width="1368" height="950" clip-rule="evenodd"/>
		</clipPath>
	</defs>
	<g clip-path="url(#clip_0)">
		<path fill="rgb(216,218,221)" stroke="none" transform="matrix(-0.95 0 0 0.95 18.9525 0.238251)" d="M14.8835 0L15.8836 2.13133L5.96048 2.13133C4.06678 2.13133 2.64299 2.60273 1.66137 3.43623C0.67976 4.26972 0.18826 5.43081 0.0384678 6.63614C-0.107894 7.81385 0.160193 9.13824 0.897734 10.2239C1.63528 11.3096 2.90213 12.13 4.56071 12.13L4.56071 10.8002C3.3186 10.8002 2.52909 10.2588 1.99815 9.47726C1.46721 8.69571 1.25412 7.64688 1.35924 6.80098C1.47917 5.83598 1.83402 5.03559 2.52341 4.45022C3.2128 3.86486 4.28463 3.46116 5.96048 3.46116L15.8836 3.46116L14.8835 5.59111L19.9 2.79486L14.8835 0Z"/>
	</g>
</svg>
